<svg width="936" height="936" viewBox="0 0 936 936" fill="none" xmlns="http://www.w3.org/2000/svg">
<path d="M851.382 447.054C851.382 682.157 660.794 872.745 425.691 872.745C190.588 872.745 0 682.157 0 447.054C0 211.951 190.588 21.3629 425.691 21.3629C660.794 21.3629 851.382 211.951 851.382 447.054Z" fill="#FAF8F2"/>
<path d="M792.801 447.054C792.801 244.305 628.44 79.9442 425.691 79.9442C222.942 79.9442 58.5814 244.305 58.5814 447.054C58.5814 649.803 222.942 814.164 425.691 814.164V872.745C190.588 872.745 0 682.157 0 447.054C0 211.951 190.588 21.3629 425.691 21.3629C660.794 21.3629 851.382 211.951 851.382 447.054C851.382 682.157 660.794 872.745 425.691 872.745V814.164C628.44 814.164 792.801 649.803 792.801 447.054Z" fill="#2D163F"/>
<path d="M890.971 57.0456L681.496 266.518L596.996 182.019L638.42 140.595L681.496 183.672L849.547 15.6217L890.971 57.0456Z" fill="#FE7327"/>
<path d="M473.858 447.054C473.858 473.656 452.293 495.221 425.691 495.221C399.089 495.221 377.524 473.656 377.524 447.054C377.524 420.452 399.089 398.887 425.691 398.887C452.293 398.887 473.858 420.452 473.858 447.054Z" fill="#2D163F"/>
<path d="M472.556 447.054C472.556 421.171 451.574 400.189 425.691 400.189C399.808 400.189 378.826 421.171 378.826 447.054C378.826 472.937 399.808 493.919 425.691 493.919V495.221C399.089 495.221 377.524 473.656 377.524 447.054C377.524 420.452 399.089 398.887 425.691 398.887C452.293 398.887 473.858 420.452 473.858 447.054C473.858 473.656 452.293 495.221 425.691 495.221V493.919C451.574 493.919 472.556 472.937 472.556 447.054Z" fill="#2D163F"/>
<path d="M232.697 226.074L232.275 225.663C223.35 217.179 209.236 217.316 200.479 226.074C191.721 234.832 191.584 248.945 200.068 257.871L200.479 258.292L427.193 485.006L459.411 452.788L232.697 226.074Z" fill="#2D163F"/>
<path d="M540.09 305.972L540.511 305.561C549.436 297.077 563.55 297.214 572.308 305.972C581.066 314.73 581.203 328.843 572.719 337.768L572.308 338.19L457.422 453.076C448.525 461.973 434.101 461.973 425.204 453.076C416.307 444.179 416.307 429.754 425.204 420.858L540.09 305.972Z" fill="#2D163F"/>
<path d="M449.124 201.663C449.124 214.245 438.924 224.445 426.342 224.445C413.76 224.445 403.56 214.245 403.56 201.663V153.496C403.56 140.914 413.76 130.715 426.342 130.715C438.924 130.715 449.124 140.914 449.124 153.496V201.663Z" fill="#2D163F"/>
<path d="M108.701 474.392C96.119 474.392 85.9193 464.192 85.9193 451.61C85.9193 439.028 96.119 428.829 108.701 428.829H156.868C169.45 428.829 179.65 439.028 179.65 451.61C179.65 464.192 169.45 474.392 156.868 474.392H108.701Z" fill="#2D163F"/>
<path d="M936 657.296C936 802.168 818.558 919.61 673.686 919.61C528.813 919.61 411.371 802.168 411.371 657.296C411.371 512.424 528.813 394.982 673.686 394.982C818.558 394.982 936 512.424 936 657.296Z" fill="#69AFAF"/>
<path d="M885.229 657.296C885.229 540.464 790.518 445.752 673.686 445.752C556.853 445.752 462.142 540.464 462.142 657.296C462.142 774.128 556.853 868.84 673.686 868.84V919.61C528.813 919.61 411.371 802.168 411.371 657.296C411.371 512.424 528.813 394.982 673.686 394.982C818.558 394.982 936 512.424 936 657.296C936 802.168 818.558 919.61 673.686 919.61V868.84C790.518 868.84 885.229 774.128 885.229 657.296Z" fill="#2D163F"/>
<path d="M696.467 513.446V528.265L734.342 537.867L756.767 573.582L718.181 597.811L705.458 577.548L674.09 569.596L646.344 577.651L634.598 591.679L640.006 615.676L682.74 634.438L758.438 666.88L768.053 742.842L717.562 789.726L696.467 792.159V805.051H650.904V788.531L604.819 773.919L584.797 738.046L624.583 715.839L635.804 735.944L675.921 748.664L697.502 746.174L719.914 725.363L716.511 698.482L664.712 676.283L664.62 676.243L600.617 648.145L585.196 579.713L620.315 537.764L650.904 528.884V513.446H696.467Z" fill="white"/>
</svg>
